<?xml version="1.0" encoding="UTF-8"?>
<!DOCTYPE svg PUBLIC "-//W3C//DTD SVG 1.1//EN" "http://www.w3.org/Graphics/SVG/1.1/DTD/svg11.dtd">
<svg xmlns="http://www.w3.org/2000/svg" version="1.1" width="2382px" height="718px" style="shape-rendering:geometricPrecision; text-rendering:geometricPrecision; image-rendering:optimizeQuality; fill-rule:evenodd; clip-rule:evenodd" xmlns:xlink="http://www.w3.org/1999/xlink">
<g><path style="opacity:0.943" fill="#d40031" d="M 2111.5,1.5 C 2119.51,1.33362 2127.51,1.50029 2135.5,2C 2154.23,5.89877 2164.23,17.3988 2165.5,36.5C 2157.91,36.1858 2150.41,36.5192 2143,37.5C 2142.2,30.0397 2138.37,24.8731 2131.5,22C 2124.29,20.887 2117.29,21.5537 2110.5,24C 2105.69,28.7252 2105.35,33.7252 2109.5,39C 2122.59,45.4753 2135.59,52.142 2148.5,59C 2158.69,69.6188 2160.85,81.7854 2155,95.5C 2148.51,106.309 2139.01,112.809 2126.5,115C 2108.96,118.486 2093.13,114.986 2079,104.5C 2073.06,96.5219 2070.23,87.5219 2070.5,77.5C 2078.12,76.6022 2085.79,76.2689 2093.5,76.5C 2092.13,86.2765 2096.13,92.4431 2105.5,95C 2111.5,95.6667 2117.5,95.6667 2123.5,95C 2135.49,90.6608 2137.49,83.6608 2129.5,74C 2118.38,68.939 2107.38,63.6056 2096.5,58C 2085.56,49.85 2081.73,39.0167 2085,25.5C 2089.29,12.3765 2098.12,4.37653 2111.5,1.5 Z"/></g>
<g><path style="opacity:0.953" fill="#d40031" d="M 1564.5,3.5 C 1573.5,3.5 1582.5,3.5 1591.5,3.5C 1597.38,40.1343 1603.05,76.801 1608.5,113.5C 1601.17,113.5 1593.83,113.5 1586.5,113.5C 1585.22,105.875 1584.22,98.2081 1583.5,90.5C 1568.82,90.1674 1554.15,90.5007 1539.5,91.5C 1535.63,98.7474 1531.63,105.914 1527.5,113C 1519.17,113.667 1510.83,113.667 1502.5,113C 1523.31,76.5538 1543.97,40.0538 1564.5,3.5 Z M 1573.5,28.5 C 1575.87,42.5642 1578.2,56.7308 1580.5,71C 1570.5,71.6667 1560.5,71.6667 1550.5,71C 1558.57,57.0187 1566.24,42.852 1573.5,28.5 Z"/></g>
<g><path style="opacity:0.952" fill="#d40031" d="M 1644.5,3.5 C 1652.17,3.5 1659.83,3.5 1667.5,3.5C 1660.04,40.1434 1652.7,76.8101 1645.5,113.5C 1637.5,113.5 1629.5,113.5 1621.5,113.5C 1628.66,76.6984 1636.33,40.0318 1644.5,3.5 Z"/></g>
<g><path style="opacity:0.953" fill="#d40031" d="M 1754.5,3.5 C 1763.5,3.5 1772.5,3.5 1781.5,3.5C 1787.38,40.1343 1793.05,76.801 1798.5,113.5C 1791.17,113.5 1783.83,113.5 1776.5,113.5C 1775.22,105.875 1774.22,98.2081 1773.5,90.5C 1758.82,90.1674 1744.15,90.5007 1729.5,91.5C 1725.63,98.7474 1721.63,105.914 1717.5,113C 1709.17,113.667 1700.83,113.667 1692.5,113C 1713.31,76.5538 1733.97,40.0538 1754.5,3.5 Z M 1763.5,28.5 C 1765.87,42.5642 1768.2,56.7308 1770.5,71C 1760.5,71.6667 1750.5,71.6667 1740.5,71C 1748.57,57.0187 1756.24,42.852 1763.5,28.5 Z"/></g>
<g><path style="opacity:0.955" fill="#d40031" d="M 1835.5,3.5 C 1852.5,3.3334 1869.5,3.50006 1886.5,4C 1901.89,7.72364 1911.72,17.2236 1916,32.5C 1921.74,60.0868 1914.57,83.5868 1894.5,103C 1887.22,107.968 1879.22,111.301 1870.5,113C 1851.17,113.5 1831.84,113.667 1812.5,113.5C 1820.17,76.8291 1827.83,40.1625 1835.5,3.5 Z M 1855.5,22.5 C 1863.51,22.3336 1871.51,22.5003 1879.5,23C 1888.83,26.457 1893.67,33.2903 1894,43.5C 1895.61,62.7723 1889.11,78.6056 1874.5,91C 1871.64,92.3989 1868.64,93.3989 1865.5,94C 1857.17,94.611 1848.84,95.111 1840.5,95.5C 1845.12,71.0641 1850.12,46.7308 1855.5,22.5 Z"/></g>
<g><path style="opacity:0.949" fill="#d40031" d="M 1933.5,3.5 C 1941.42,3.18496 1949.25,3.51829 1957,4.5C 1961.25,31.3279 1965.92,57.9945 1971,84.5C 1985.33,57.8333 1999.67,31.1667 2014,4.5C 2022.09,3.35175 2030.25,3.18508 2038.5,4C 2018.45,39.9269 1998.79,76.0935 1979.5,112.5C 1970.52,113.498 1961.52,113.832 1952.5,113.5C 1946.17,76.8333 1939.83,40.1667 1933.5,3.5 Z"/></g>
<g><path style="opacity:0.948" fill="#d40031" d="M 2046.5,3.5 C 2054.17,3.5 2061.83,3.5 2069.5,3.5C 2062.19,40.1921 2054.69,76.8587 2047,113.5C 2039.24,114.152 2031.41,114.152 2023.5,113.5C 2030.66,76.6984 2038.33,40.0318 2046.5,3.5 Z"/></g>
<g><path style="opacity:0.948" fill="#d40031" d="M 2192.5,3.5 C 2219.84,3.16686 2247.17,3.5002 2274.5,4.5C 2272.85,10.4331 2271.52,16.4331 2270.5,22.5C 2250.83,22.5 2231.17,22.5 2211.5,22.5C 2210.35,30.6016 2208.68,38.6016 2206.5,46.5C 2225.5,47.1667 2244.5,47.8333 2263.5,48.5C 2262.17,54.1667 2260.83,59.8333 2259.5,65.5C 2240.5,66.1667 2221.5,66.8333 2202.5,67.5C 2200.12,76.7544 2198.12,86.0877 2196.5,95.5C 2217.5,95.5 2238.5,95.5 2259.5,95.5C 2258.48,101.757 2257.15,107.924 2255.5,114C 2226.84,114.5 2198.17,114.667 2169.5,114.5C 2176.79,77.3971 2184.45,40.3971 2192.5,3.5 Z"/></g>
<g><path style="opacity:0.946" fill="#d40031" d="M 2294.5,3.5 C 2315.5,3.33338 2336.5,3.50004 2357.5,4C 2372.25,7.42285 2379.58,16.7562 2379.5,32C 2379.64,45.0616 2374.31,55.0616 2363.5,62C 2358.38,64.447 2353.05,66.2803 2347.5,67.5C 2357.57,81.9707 2365.24,97.6374 2370.5,114.5C 2362.14,114.831 2353.81,114.498 2345.5,113.5C 2340.77,99.1352 2334.61,85.4685 2327,72.5C 2325.42,70.9588 2323.59,69.7922 2321.5,69C 2315.84,68.5006 2310.18,68.3339 2304.5,68.5C 2301.5,83.8333 2298.5,99.1667 2295.5,114.5C 2287.5,114.5 2279.5,114.5 2271.5,114.5C 2279.04,77.4739 2286.71,40.4739 2294.5,3.5 Z M 2314.5,22.5 C 2326.17,22.3335 2337.84,22.5001 2349.5,23C 2355.02,25.9188 2356.86,30.4188 2355,36.5C 2352.41,42.0878 2348.25,45.9211 2342.5,48C 2333.05,49.2172 2323.55,50.0505 2314,50.5C 2312.17,50.1667 2310.33,49.8333 2308.5,49.5C 2310.5,40.4921 2312.5,31.4921 2314.5,22.5 Z"/></g>
<g><path style="opacity:0.992" fill="#d50031" d="M 1180.5,74.5 C 1213.17,74.3334 1245.84,74.5 1278.5,75C 1322.46,142.415 1366.29,209.915 1410,277.5C 1436.62,237.085 1463.12,196.585 1489.5,156C 1521.51,155.167 1553.51,155.333 1585.5,156.5C 1543.25,217.993 1501.25,279.66 1459.5,341.5C 1541.3,463.137 1623.3,584.637 1705.5,706C 1672.26,706.829 1639.1,706.662 1606,705.5C 1539.75,606.005 1473.75,506.338 1408,406.5C 1379.5,449.667 1351,492.833 1322.5,536C 1290.49,536.833 1258.49,536.667 1226.5,535.5C 1270.5,471.167 1314.5,406.833 1358.5,342.5C 1298.72,253.403 1239.39,164.069 1180.5,74.5 Z"/></g>
<g><path style="opacity:0.994" fill="#d50031" d="M 1805.5,148.5 C 1875.47,148.073 1931.97,175.073 1975,229.5C 2011.04,283.416 2020.37,341.75 2003,404.5C 1977.14,478.02 1925.97,522.853 1849.5,539C 1782.94,550.53 1723.61,535.196 1671.5,493C 1619.52,443.048 1599.02,382.215 1610,310.5C 1624.12,242.064 1662.95,193.564 1726.5,165C 1752.01,154.867 1778.34,149.367 1805.5,148.5 Z M 1804.5,226.5 C 1854.87,227.42 1891.03,250.42 1913,295.5C 1930.3,340.573 1925.3,382.906 1898,422.5C 1865.67,459.496 1825.5,471.996 1777.5,460C 1738.2,446.696 1712.36,420.196 1700,380.5C 1689.18,337.247 1697.52,298.247 1725,263.5C 1746.69,240.735 1773.19,228.401 1804.5,226.5 Z"/></g>
<g><path style="opacity:0.995" fill="#d50031" d="M 567.5,152.5 C 593.833,152.5 620.167,152.5 646.5,152.5C 700.5,280.5 754.5,408.5 808.5,536.5C 779.159,536.833 749.826,536.5 720.5,535.5C 708.731,507.357 697.065,479.19 685.5,451C 632.5,450.333 579.5,450.333 526.5,451C 514.545,479.028 502.878,507.195 491.5,535.5C 462.841,536.5 434.174,536.833 405.5,536.5C 459.5,408.5 513.5,280.5 567.5,152.5 Z M 605.5,255.5 C 622.336,295.319 639.003,335.319 655.5,375.5C 622.5,376.833 589.5,376.833 556.5,375.5C 573.231,335.637 589.564,295.637 605.5,255.5 Z"/></g>
<g><path style="opacity:0.996" fill="#d50031" d="M 10.5,155.5 C 36.8354,155.333 63.1688,155.5 89.5,156C 147.636,233.103 206.136,309.936 265,386.5C 265.5,309.501 265.667,232.501 265.5,155.5C 293.5,155.5 321.5,155.5 349.5,155.5C 349.5,282.5 349.5,409.5 349.5,536.5C 325.498,536.667 301.498,536.5 277.5,536C 216.283,456.451 155.45,376.618 95,296.5C 94.5,376.499 94.3333,456.499 94.5,536.5C 66.5,536.5 38.5,536.5 10.5,536.5C 10.5,409.5 10.5,282.5 10.5,155.5 Z"/></g>
<g><path style="opacity:0.231" fill="#d30034" d="M 865.5,155.5 C 865.5,282.167 865.5,408.833 865.5,535.5C 893.338,535.169 921.005,535.502 948.5,536.5C 920.5,536.5 892.5,536.5 864.5,536.5C 864.167,409.332 864.5,282.332 865.5,155.5 Z"/></g>
<g><path style="opacity:0.994" fill="#d50031" d="M 865.5,155.5 C 928.834,155.333 992.168,155.5 1055.5,156C 1087.36,157.284 1116.02,167.284 1141.5,186C 1163.92,205.338 1177.09,229.838 1181,259.5C 1190.01,326.688 1163.84,373.855 1102.5,401C 1130.26,442.431 1158.43,483.597 1187,524.5C 1189.87,528.183 1192.04,532.183 1193.5,536.5C 1160.83,536.667 1128.16,536.5 1095.5,536C 1067.97,495.97 1040.64,455.804 1013.5,415.5C 992.177,414.5 970.844,414.167 949.5,414.5C 949.832,455.337 949.499,496.003 948.5,536.5C 921.005,535.502 893.338,535.169 865.5,535.5C 865.5,408.833 865.5,282.167 865.5,155.5 Z M 949.5,231.5 C 979.169,231.333 1008.84,231.5 1038.5,232C 1084.16,235.505 1102.66,259.671 1094,304.5C 1085,325.11 1069.17,336.61 1046.5,339C 1014.17,339.5 981.835,339.667 949.5,339.5C 949.5,303.5 949.5,267.5 949.5,231.5 Z"/></g>
<g><path style="opacity:0.995" fill="#d50031" d="M 2369.5,536.5 C 2264.33,535.501 2159,535.167 2053.5,535.5C 2053.83,514.327 2053.5,493.327 2052.5,472.5C 2121.62,391.539 2190.96,310.706 2260.5,230C 2193.5,229.5 2126.5,229.333 2059.5,229.5C 2059.5,204.833 2059.5,180.167 2059.5,155.5C 2163.17,155.5 2266.83,155.5 2370.5,155.5C 2370.67,177.169 2370.5,198.836 2370,220.5C 2300.95,300.76 2231.78,380.927 2162.5,461C 2231.83,461.5 2301.17,461.667 2370.5,461.5C 2370.83,486.672 2370.5,511.672 2369.5,536.5 Z"/></g>
<g><path style="opacity:0.133" fill="#d20035" d="M 2052.5,472.5 C 2053.5,493.327 2053.83,514.327 2053.5,535.5C 2159,535.167 2264.33,535.501 2369.5,536.5C 2263.83,536.5 2158.17,536.5 2052.5,536.5C 2052.5,515.167 2052.5,493.833 2052.5,472.5 Z"/></g>
<g><path style="opacity:0.977" fill="#d50031" d="M 996.5,578.5 C 1012.73,576.705 1028.07,579.538 1042.5,587C 1046.07,588.618 1049.07,590.951 1051.5,594C 1049.08,598.756 1046.24,603.256 1043,607.5C 1042.25,608.99 1041.09,609.99 1039.5,610.5C 1029.84,603.446 1019.01,599.446 1007,598.5C 997.274,597.686 990.608,601.686 987,610.5C 986.499,619.354 990.666,624.854 999.5,627C 1013.18,630.337 1026.51,634.67 1039.5,640C 1052.98,648.478 1058.15,660.645 1055,676.5C 1051.2,690.965 1042.04,700.131 1027.5,704C 1008.17,708.044 989.833,705.377 972.5,696C 967.708,693.039 963.375,689.539 959.5,685.5C 963.812,680.02 968.312,674.687 973,669.5C 988.374,684.469 1006.21,688.636 1026.5,682C 1035.37,674.204 1035.37,666.537 1026.5,659C 1010.68,654.127 995.009,648.794 979.5,643C 966.286,634.376 961.453,622.21 965,606.5C 970.04,590.957 980.54,581.623 996.5,578.5 Z"/></g>
<g><path style="opacity:0.98" fill="#d50031" d="M 187.5,579.5 C 194.508,579.334 201.508,579.5 208.5,580C 230,607.5 251.5,635 273,662.5C 273.5,634.835 273.667,607.169 273.5,579.5C 281.167,579.5 288.833,579.5 296.5,579.5C 296.5,621.167 296.5,662.833 296.5,704.5C 289.8,704.83 283.134,704.497 276.5,703.5C 254.142,674.976 231.975,646.309 210,617.5C 209.5,646.498 209.333,675.498 209.5,704.5C 202.167,704.5 194.833,704.5 187.5,704.5C 187.5,662.833 187.5,621.167 187.5,579.5 Z"/></g>
<g><path style="opacity:0.98" fill="#d50031" d="M 454.5,580.5 C 462.902,579.172 471.402,579.172 480,580.5C 491.798,611.423 504.131,642.089 517,672.5C 529,641.833 541,611.167 553,580.5C 561.081,579.518 569.248,579.184 577.5,579.5C 560.962,620.915 544.129,662.248 527,703.5C 523.767,704.786 520.267,705.453 516.5,705.5C 512.916,705.482 509.416,705.148 506,704.5C 489.057,662.963 471.89,621.63 454.5,580.5 Z"/></g>
<g><path style="opacity:0.99" fill="#d50031" d="M 10.5,579.5 C 18.1667,579.5 25.8333,579.5 33.5,579.5C 33.3334,605.502 33.5,631.502 34,657.5C 36.3535,675.354 46.5201,684.687 64.5,685.5C 79.0189,685.13 88.5189,678.13 93,664.5C 94.4579,636.209 94.9579,607.876 94.5,579.5C 102.167,579.5 109.833,579.5 117.5,579.5C 117.667,605.835 117.5,632.169 117,658.5C 113.158,689.61 95.4915,705.61 64,706.5C 31.0702,705.901 13.4035,689.235 11,656.5C 10.5,630.835 10.3334,605.169 10.5,579.5 Z"/></g>
<g><path style="opacity:1" fill="#d40031" d="M 369.5,579.5 C 377.167,579.5 384.833,579.5 392.5,579.5C 392.5,621.167 392.5,662.833 392.5,704.5C 384.833,704.5 377.167,704.5 369.5,704.5C 369.5,662.833 369.5,621.167 369.5,579.5 Z"/></g>
<g><path style="opacity:0.989" fill="#d50031" d="M 639.5,579.5 C 670.167,579.5 700.833,579.5 731.5,579.5C 731.5,586.5 731.5,593.5 731.5,600.5C 708.167,600.5 684.833,600.5 661.5,600.5C 661.5,610.833 661.5,621.167 661.5,631.5C 682.167,631.5 702.833,631.5 723.5,631.5C 723.5,638.167 723.5,644.833 723.5,651.5C 702.833,651.5 682.167,651.5 661.5,651.5C 661.5,662.167 661.5,672.833 661.5,683.5C 685.167,683.5 708.833,683.5 732.5,683.5C 732.5,690.5 732.5,697.5 732.5,704.5C 701.5,704.5 670.5,704.5 639.5,704.5C 639.5,662.833 639.5,621.167 639.5,579.5 Z"/></g>
<g><path style="opacity:0.971" fill="#d50031" d="M 798.5,579.5 C 821.196,579.102 843.863,579.602 866.5,581C 894.832,588.146 905.332,605.98 898,634.5C 893.022,645.982 884.522,653.315 872.5,656.5C 882.293,672.65 892.96,688.317 904.5,703.5C 895.518,704.665 886.518,704.832 877.5,704C 867.5,690 857.5,676 847.5,662C 838.84,661.5 830.173,661.334 821.5,661.5C 821.5,675.833 821.5,690.167 821.5,704.5C 813.833,704.5 806.167,704.5 798.5,704.5C 798.5,662.833 798.5,621.167 798.5,579.5 Z M 821.5,600.5 C 833.838,600.333 846.171,600.5 858.5,601C 875.242,604.567 880.742,614.4 875,630.5C 869.657,637.588 862.49,641.088 853.5,641C 842.839,641.5 832.172,641.667 821.5,641.5C 821.5,627.833 821.5,614.167 821.5,600.5 Z"/></g>
<g><path style="opacity:0.942" fill="#d50032" d="M 1122.5,579.5 C 1130.17,579.5 1137.83,579.5 1145.5,579.5C 1145.5,621.167 1145.5,662.833 1145.5,704.5C 1137.83,704.5 1130.17,704.5 1122.5,704.5C 1122.5,662.833 1122.5,621.167 1122.5,579.5 Z"/></g>
<g><path style="opacity:0.992" fill="#d50031" d="M 1210.5,579.5 C 1244.17,579.5 1277.83,579.5 1311.5,579.5C 1311.5,586.5 1311.5,593.5 1311.5,600.5C 1298.5,600.5 1285.5,600.5 1272.5,600.5C 1272.5,635.167 1272.5,669.833 1272.5,704.5C 1264.83,704.5 1257.17,704.5 1249.5,704.5C 1249.5,669.833 1249.5,635.167 1249.5,600.5C 1236.5,600.5 1223.5,600.5 1210.5,600.5C 1210.5,593.5 1210.5,586.5 1210.5,579.5 Z"/></g>
<g><path style="opacity:0.972" fill="#d50031" d="M 1361.5,580.5 C 1370.32,579.343 1379.32,579.176 1388.5,580C 1399.64,597.967 1410.97,615.8 1422.5,633.5C 1433.83,615.833 1445.17,598.167 1456.5,580.5C 1465.17,579.167 1473.83,579.167 1482.5,580.5C 1466.58,605.338 1450.42,630.004 1434,654.5C 1433.5,671.163 1433.33,687.83 1433.5,704.5C 1425.83,704.5 1418.17,704.5 1410.5,704.5C 1410.67,687.83 1410.5,671.163 1410,654.5C 1393.97,629.658 1377.8,604.991 1361.5,580.5 Z"/></g>
</svg>
